<svg width="360" height="360" version="1.1" xmlns="http://www.w3.org/2000/svg" desc="Created with imagetracer.js version 1.2.6" ><path fill="rgb(251,251,251)" stroke="rgb(251,251,251)" stroke-width="1" opacity="1" d="M 168 127 L 175.5 127 L 176 129 L 169.5 128 L 168 128.5 L 168 127 Z " /><path fill="rgb(251,251,251)" stroke="rgb(251,251,251)" stroke-width="1" opacity="1" d="M 184 127 L 191.5 127 Q 193 130.5 199.5 129 L 201 128.5 L 200.5 130 L 204 131 L 205 134.5 L 203.5 134 L 202 134 Q 203.5 130.2 200.5 131 L 200.5 133 L 198 131.5 L 200 130.5 L 192 130 Q 193.4 126 186.5 128 L 184 129 L 184 127 Z " /><path fill="rgb(251,251,251)" stroke="rgb(251,251,251)" stroke-width="1" opacity="1" d="M 157.5 128 L 164 131.5 L 163.5 133 L 166 134.5 L 164.5 137 L 164 135.5 L 164.5 134 L 162 132.5 Q 162.8 129.9 159.5 131 L 157 130 L 157.5 128 Z " /><path fill="rgb(251,251,251)" stroke="rgb(251,251,251)" stroke-width="1" opacity="1" d="M 162.5 128 L 165 128.5 Q 162.9 131.8 162.5 128 Z " /><path fill="rgb(251,251,251)" stroke="rgb(251,251,251)" stroke-width="1" opacity="1" d="M 206.5 128 Q 209.5 129.5 206.5 131 L 203 129.5 L 204.5 129 L 206.5 130 L 206.5 128 Z " /><path fill="rgb(251,251,251)" stroke="rgb(251,251,251)" stroke-width="1" opacity="1" d="M 206.5 132 L 208 135.5 L 206 134.5 L 206.5 132 Z " /><path fill="rgb(251,251,251)" stroke="rgb(251,251,251)" stroke-width="1" opacity="1" d="M 160.5 133 L 163 136.5 L 161 137.5 L 162 135.5 L 159 137.5 L 162 141.5 L 160.5 141 Q 158.3 141.8 159 139.5 L 157 136.5 L 161 134.5 L 160.5 133 Z " /><path fill="rgb(251,251,251)" stroke="rgb(251,251,251)" stroke-width="1" opacity="1" d="M 153.5 134 Q 156.8 132.9 156 135.5 L 154.5 135 L 153.5 134 Z " /><path fill="rgb(251,251,251)" stroke="rgb(251,251,251)" stroke-width="1" opacity="1" d="M 146.5 136 L 148 138.5 L 147 138.5 L 146.5 136 Z " /><path fill="rgb(251,251,251)" stroke="rgb(251,251,251)" stroke-width="1" opacity="1" d="M 209.5 136 L 213 138.5 L 211.5 138 L 209.5 136 Z " /><path fill="rgb(251,251,251)" stroke="rgb(251,251,251)" stroke-width="1" opacity="1" d="M 213.5 136 L 216 136.5 Q 213.9 139.8 213.5 136 Z " /><path fill="rgb(251,251,251)" stroke="rgb(251,251,251)" stroke-width="1" opacity="1" d="M 163 138 L 165 138.5 L 163 139.5 L 163 138 Z " /><path fill="rgb(251,251,251)" stroke="rgb(251,251,251)" stroke-width="1" opacity="1" d="M 166.5 138 L 169.5 142 L 171 139 L 173.5 140 L 175 139.5 Q 175.8 142.1 172.5 141 L 172.5 142 L 174 142.5 L 171.5 144 L 171.5 142 Q 169.3 141.3 170 143.5 L 169 143.5 L 167.5 141 L 167 142.5 L 168 144.5 L 167 144.5 L 165.5 142 Q 162.9 141.2 164 144.5 L 166 144.5 L 165.5 146 Q 167.8 145.3 167 147.5 L 167.5 149 L 162 145 L 163 141 L 167 140.5 L 166.5 138 Z " /><path fill="rgb(251,251,251)" stroke="rgb(251,251,251)" stroke-width="1" opacity="1" d="M 145.5 139 L 146.5 141 Q 144.3 140.3 145 142.5 L 142 144 L 141.5 146 Q 140.3 143.8 139 146.5 L 136.5 151 L 136 149.5 L 138 146.5 L 136 146.5 L 137.5 144 L 138.5 146 L 142 141 Q 145.8 142.3 145.5 139 Z " /><path fill="rgb(251,251,251)" stroke="rgb(251,251,251)" stroke-width="1" opacity="1" d="M 176.5 139 Q 177.8 141.2 182.5 140 L 185.5 139 Q 190.1 138.4 191.5 141 Q 193 138.5 194.5 142 L 196.5 143 L 198 142.5 L 198.5 144 L 200 143.5 L 200 145 L 196 145 Q 197.1 142.3 194.5 143 L 193 143.5 L 193.5 142 L 186.5 140 L 185.5 141 L 176 141 L 176.5 139 Z " /><path fill="rgb(251,251,251)" stroke="rgb(251,251,251)" stroke-width="1" opacity="1" d="M 213.5 140 L 218 141 L 219 145.5 L 215 142.5 Q 215.8 140.3 213.5 141 L 213.5 140 Z " /><path fill="rgb(251,251,251)" stroke="rgb(251,251,251)" stroke-width="1" opacity="1" d="M 183.5 142 L 186 142.5 L 183.5 143 L 183.5 142 Z " /><path fill="rgb(251,251,251)" stroke="rgb(251,251,251)" stroke-width="1" opacity="1" d="M 187.5 142 L 190 142.5 L 187.5 143 L 187.5 142 Z " /><path fill="rgb(251,251,251)" stroke="rgb(251,251,251)" stroke-width="1" opacity="1" d="M 220.5 145 L 224 146.5 L 223 148.5 L 224 150.5 L 223 150.5 L 220.5 145 Z " /><path fill="rgb(251,251,251)" stroke="rgb(251,251,251)" stroke-width="1" opacity="1" d="M 201.5 146 L 207 148 Q 205.9 150.7 208.5 150 L 210 152.5 L 207.5 156 L 204 154.5 L 206.5 154 L 208 154.5 L 207 152.5 Q 209.3 151.3 206.5 150 Q 205.2 152.3 204 149.5 L 204.5 148 L 202 148.5 L 202.5 150 L 201 150.5 L 203 151.5 L 201.5 152 Q 200 149.5 198.5 153 L 196 151.5 L 200 151 L 201 148.5 Q 198.8 147.3 201.5 146 Z " /><path fill="rgb(251,251,251)" stroke="rgb(251,251,251)" stroke-width="1" opacity="1" d="M 153.5 148 L 155.5 153 L 156.5 151 L 157 152.5 L 156 155 L 152 157.5 L 151 159.5 L 153 160.5 L 152 164.5 L 152 168.5 L 152 201.5 L 153 203.5 L 150 204.5 L 154 205.5 L 152 206.5 L 152 208.5 L 155.5 212 L 158.5 213 L 160 212.5 L 159.5 215 L 153 212 Q 154.1 209.3 151.5 210 L 150 207.5 L 151 206.5 L 148 201.5 L 148.5 200 Q 149.8 202.3 151 199.5 L 151 160.5 L 149.5 159 L 148 159.5 L 150 156.5 L 149.5 155 L 152 156.5 Q 151.3 154.3 153.5 155 L 152.5 153 Q 151.3 155.3 150 152.5 L 151.5 150 Q 154 150.7 153.5 148 Z M 154 150 L 152 152 L 154 153 L 154 150 Z " /><path fill="rgb(251,251,251)" stroke="rgb(251,251,251)" stroke-width="1" opacity="1" d="M 130.5 152 L 133.5 153 Q 134.8 150.8 136 153.5 L 133 154 L 134 157.5 L 132 158.5 L 132.5 160 L 130 159 Q 131.1 156.3 128.5 157 L 130.5 154 L 130 155.5 L 131.5 158 L 132 153 L 130.5 152 Z " /><path fill="rgb(251,251,251)" stroke="rgb(251,251,251)" stroke-width="1" opacity="1" d="M 170.5 152 L 173 153 L 173.5 155 L 174.5 152 L 176 153.5 L 175 156.5 L 176 158.5 L 173 156.5 L 172.5 155 L 171 155.5 L 172 154.5 L 170.5 152 Z " /><path fill="rgb(251,251,251)" stroke="rgb(251,251,251)" stroke-width="1" opacity="1" d="M 148.5 153 L 148 154.5 L 147.5 156 L 147 154.5 L 148.5 153 Z " /><path fill="rgb(251,251,251)" stroke="rgb(251,251,251)" stroke-width="1" opacity="1" d="M 211.5 153 L 215 159.5 L 213 158.5 L 211.5 153 Z " /><path fill="rgb(251,251,251)" stroke="rgb(251,251,251)" stroke-width="1" opacity="1" d="M 192.5 154 L 195 154.5 L 192.5 155 L 192.5 154 Z " /><path fill="rgb(251,251,251)" stroke="rgb(251,251,251)" stroke-width="1" opacity="1" d="M 157.5 155 L 163 158.5 L 164 161.5 L 161 162.5 Q 159.9 165.8 162.5 165 L 162.5 163 L 163.5 164 L 166 162.5 L 165.5 164 L 168 164 L 168 167 L 170 167 Q 168.9 169.7 171.5 169 L 171.5 170 L 168 169 L 167.5 167 L 167 170 L 170 171.5 L 170.5 173 L 171.5 171 L 176 174.5 L 176 176.5 Q 177.1 179.8 174.5 179 L 174.5 180 Q 177.8 181.1 177 178.5 L 179.5 180 Q 181.8 179.3 181 181.5 L 183 187 L 187 188 L 186 190.5 L 188.5 192 L 190 191.5 Q 187.8 192.8 190.5 194 L 192 194.5 Q 190.5 197.5 189 194.5 Q 189.7 191.9 187 193 L 189 199 L 191 198.5 L 190.5 197 L 194 196 L 196 202 L 193 203.5 L 194.5 204 L 195.5 203 L 198 204.5 L 198.5 203 L 199 205 L 203 203.5 L 203 183.5 L 204.5 182 L 206 181.5 L 203 180.5 L 203.5 156 L 206.5 158 L 210.5 155 Q 208.9 156.8 212 158.5 L 211.5 160 L 209.5 157 L 208.5 159 L 207 158.5 L 206 160.5 L 206 176.5 L 207.5 176 L 209 176.5 L 207 177 L 206 179.5 L 207 181.5 L 206 183.5 Q 209.1 185.3 207.5 187 L 216 186.5 L 209 185.5 L 220.5 185 L 220.5 188 L 216.5 187 L 216.5 188 L 219 189.5 L 218 191.5 L 218 193.5 L 217 196.5 L 217.5 198 Q 214.8 196.8 217 195.5 L 216 193.5 L 218 192.5 L 218 190.5 Q 218.8 188.3 216.5 189 L 215 189.5 L 215.5 188 L 206.5 188 L 204.5 186 L 204 187.5 L 208 189.5 L 204 190 L 204 202.5 L 207 208 L 209 207.5 L 205 201.5 L 207.5 200 L 209.5 203 L 211.5 200 L 212 201.5 Q 208.9 203.2 210.5 205 L 208 203.5 L 210 208.5 L 206 211 L 205.5 213 L 204.5 211 L 203.5 213 L 203 210 L 201 209.5 Q 202.8 205.2 204.5 208 L 206 207.5 L 203.5 204 L 201.5 207 L 199.5 206 L 199 210.5 L 200.5 212 L 202 211.5 L 200.5 213 L 197 209.5 L 199 207.5 L 195.5 204 L 195 205.5 L 196.5 208 L 191 203.5 L 191.5 202 L 189 200.5 L 187.5 196 L 186.5 198 L 186 196.5 L 186 194.5 L 187 192.5 L 185 191.5 L 184.5 194 L 181.5 190 L 179 188.5 L 180.5 186 L 182 185.5 L 180.5 182 L 176 183.5 L 177 181 L 174.5 182 L 174 180 L 172 180 Q 173.1 177.3 170.5 178 L 166.5 172 L 165 171.5 L 167 170.5 L 166 166.5 L 166.5 165 L 164 166.5 L 165 168.5 L 163.5 168 L 160 165.5 Q 161.1 162.2 158.5 163 Q 155.8 161.7 158 160.5 L 157.5 159 L 156 159.5 Q 156.8 157.3 154.5 158 L 154.5 157 L 157.5 158 L 158 156.5 L 157.5 155 Z M 205 158 L 206 160 Q 207 157 205 158 Z M 159 159 L 159 161 L 161 160 L 159 159 Z M 205 160 L 204 176 L 205 176 L 205 160 Z M 168 171 L 169 173 Q 170 170 168 171 Z M 172 175 L 170 177 L 174 179 L 175 177 Q 173 178 172 175 Z M 180 187 L 180 189 L 182 188 L 182 190 L 185 189 L 180 187 Z M 193 197 L 192 199 L 191 201 L 193 200 L 193 202 L 195 201 Q 196 198 193 199 L 193 197 Z " /><path fill="rgb(251,251,251)" stroke="rgb(251,251,251)" stroke-width="1" opacity="1" d="M 223.5 155 L 223.5 158 L 222 158.5 L 224 161.5 L 223 161.5 L 222.5 160 L 221 163.5 L 222 165.5 L 220 165.5 L 221 167.5 L 219 166.5 L 220 163.5 L 218 164.5 L 217 166.5 L 217.5 168 L 216 165.5 L 216 163.5 L 220.5 158 Q 222.8 158.8 222 156.5 L 223.5 155 Z M 220 160 L 218 162 L 220 162 L 221 163 L 220 160 Z " /><path fill="rgb(251,251,251)" stroke="rgb(251,251,251)" stroke-width="1" opacity="1" d="M 146.5 157 L 147 158.5 L 145 159.5 L 146.5 157 Z " /><path fill="rgb(251,251,251)" stroke="rgb(251,251,251)" stroke-width="1" opacity="1" d="M 128.5 159 Q 131.3 160.2 129 161.5 L 130 164.5 L 128.5 168 L 128 165.5 L 129 163.5 L 128 161.5 L 128.5 159 Z " /><path fill="rgb(251,251,251)" stroke="rgb(251,251,251)" stroke-width="1" opacity="1" d="M 193.5 159 L 194 175.5 L 195 176.5 L 193 175.5 L 193.5 159 Z " /><path fill="rgb(251,251,251)" stroke="rgb(251,251,251)" stroke-width="1" opacity="1" d="M 175.5 160 L 178.5 161 L 180.5 161 L 184 163.5 L 183 166.5 L 185.5 170 L 186 168 L 188.5 169 L 190 168.5 L 190.5 170 L 192 169.5 Q 190.8 172.3 189.5 170 L 187.5 169 Q 184.5 170.5 187.5 172 L 190 173.5 L 190.5 175 L 192 174.5 L 191 177 L 195 178.5 L 193 179.5 Q 196.8 181.3 193.5 183 Q 195.2 180.7 191 178.5 L 190.5 177 L 189 177.5 L 190 175 L 187 175 Q 188.1 172.3 185.5 173 L 184.5 170 L 182 168.5 L 181 163.5 L 181.5 162 Q 178.9 161.2 180 164.5 L 177 162.5 Q 177.8 160.3 175.5 161 L 175.5 160 Z " /><path fill="rgb(251,251,251)" stroke="rgb(251,251,251)" stroke-width="1" opacity="1" d="M 142.5 162 L 143.5 164 L 142.5 162 Z " /><path fill="rgb(251,251,251)" stroke="rgb(251,251,251)" stroke-width="1" opacity="1" d="M 142.5 165 L 143.5 167 L 142.5 165 Z " /><path fill="rgb(251,251,251)" stroke="rgb(251,251,251)" stroke-width="1" opacity="1" d="M 223.5 166 L 222.5 168 L 223.5 166 Z " /><path fill="rgb(251,251,251)" stroke="rgb(251,251,251)" stroke-width="1" opacity="1" d="M 141.5 167 L 140.5 169 L 141.5 167 Z " /><path fill="rgb(251,251,251)" stroke="rgb(251,251,251)" stroke-width="1" opacity="1" d="M 142.5 169 L 143 171.5 Q 140.2 173.2 141 178.5 L 142 180.5 L 141 185.5 L 143 190.5 L 142 190.5 L 139 185.5 L 141 179.5 L 139 174.5 L 142.5 169 Z " /><path fill="rgb(251,251,251)" stroke="rgb(251,251,251)" stroke-width="1" opacity="1" d="M 143.5 173 L 144 174.5 L 142.5 177 L 142 175.5 L 143.5 173 Z " /><path fill="rgb(251,251,251)" stroke="rgb(251,251,251)" stroke-width="1" opacity="1" d="M 142.5 183 L 144 186.5 L 143 186.5 L 142.5 183 Z " /><path fill="rgb(251,251,251)" stroke="rgb(251,251,251)" stroke-width="1" opacity="1" d="M 164.5 184 L 165.5 186 Q 164.3 183.8 163 186.5 L 166 187.5 L 164 188 L 164.5 190 L 167.5 189 L 169 190.5 L 165 190.5 L 164 200 L 167 201.5 L 165.5 201 L 163.5 200 L 163 202 L 165 202 Q 163.9 204.7 166.5 204 L 167.5 206 L 162 202.5 L 163 190.5 L 163 188.5 L 162 185 L 164.5 184 Z " /><path fill="rgb(251,251,251)" stroke="rgb(251,251,251)" stroke-width="1" opacity="1" d="M 178 184 L 180 184.5 L 178 185.5 L 178 184 Z " /><path fill="rgb(251,251,251)" stroke="rgb(251,251,251)" stroke-width="1" opacity="1" d="M 140.5 191 L 144 196.5 L 143 196.5 L 140.5 191 Z " /><path fill="rgb(251,251,251)" stroke="rgb(251,251,251)" stroke-width="1" opacity="1" d="M 205.5 191 L 206 199.5 L 205 199.5 L 205.5 191 Z " /><path fill="rgb(251,251,251)" stroke="rgb(251,251,251)" stroke-width="1" opacity="1" d="M 230.5 191 L 232 194.5 L 231 197.5 L 231.5 199 L 230 195.5 L 231 193.5 L 230.5 191 Z " /><path fill="rgb(251,251,251)" stroke="rgb(251,251,251)" stroke-width="1" opacity="1" d="M 129.5 192 L 129 193.5 L 130 197.5 L 128 198.5 L 129 195.5 L 128 193.5 L 129.5 192 Z " /><path fill="rgb(251,251,251)" stroke="rgb(251,251,251)" stroke-width="1" opacity="1" d="M 168.5 192 L 170.5 192 L 174 195.5 L 173.5 198 L 171.5 198 Q 169.3 197.3 170 199.5 L 168 198.5 L 171 196.5 Q 171.7 193.9 169 195 L 168.5 197 L 168 195.5 L 169 193.5 L 168.5 192 Z " /><path fill="rgb(251,251,251)" stroke="rgb(251,251,251)" stroke-width="1" opacity="1" d="M 175.5 199 L 176.5 201 L 175.5 199 Z " /><path fill="rgb(251,251,251)" stroke="rgb(251,251,251)" stroke-width="1" opacity="1" d="M 132.5 200 L 132.5 202 L 134 202.5 L 133 206 L 136 206.5 Q 134 210 132 205.5 L 131.5 202 L 130 204.5 L 130.5 206 L 128.5 203 L 131.5 201 L 132.5 200 Z " /><path fill="rgb(251,251,251)" stroke="rgb(251,251,251)" stroke-width="1" opacity="1" d="M 145.5 200 L 148 205.5 L 147 205.5 L 145.5 200 Z " /><path fill="rgb(251,251,251)" stroke="rgb(251,251,251)" stroke-width="1" opacity="1" d="M 214.5 200 L 214 201.5 L 211.5 207 L 212 205.5 L 214.5 200 Z " /><path fill="rgb(251,251,251)" stroke="rgb(251,251,251)" stroke-width="1" opacity="1" d="M 227.5 200 L 230 201 Q 228.9 203.7 231.5 203 L 229.5 206 L 230 204.5 L 228.5 202 L 228 207 L 230 207.5 L 228.5 208 L 226.5 207 Q 225.3 209.3 224 206.5 L 227 206 L 226 202.5 L 228 201.5 L 227.5 200 Z " /><path fill="rgb(251,251,251)" stroke="rgb(251,251,251)" stroke-width="1" opacity="1" d="M 177.5 203 L 178.5 205 L 177 204.5 L 176.5 206 L 176 204.5 L 177.5 203 Z " /><path fill="rgb(251,251,251)" stroke="rgb(251,251,251)" stroke-width="1" opacity="1" d="M 180.5 205 L 182 208 L 179.5 207 L 178 207.5 Q 177.3 205.3 179.5 206 L 180.5 205 Z " /><path fill="rgb(251,251,251)" stroke="rgb(251,251,251)" stroke-width="1" opacity="1" d="M 157.5 207 Q 162 209 158.5 211 L 157 210.5 L 159 209.5 L 157 209 L 157.5 207 Z " /><path fill="rgb(251,251,251)" stroke="rgb(251,251,251)" stroke-width="1" opacity="1" d="M 136.5 209 L 140.5 215 L 141.5 214 L 145 217.5 Q 144.3 219.8 146.5 219 L 146.5 220 L 144.5 221 L 144.5 219 Q 141.2 220.1 142 217.5 L 138 214.5 L 137.5 216 L 136 213.5 L 138 213.5 L 136.5 209 Z " /><path fill="rgb(251,251,251)" stroke="rgb(251,251,251)" stroke-width="1" opacity="1" d="M 184.5 209 L 186 211.5 L 185 213.5 L 188 212.5 Q 185.8 213.8 188.5 215 L 192 217.5 L 191 218.5 L 195.5 223 L 197 223.5 L 195 224.5 L 196.5 228 L 199.5 227 L 199.5 229 L 203 227.5 L 202.5 226 L 204 229 L 199.5 230 L 195 227.5 L 194.5 225 L 193 225.5 Q 195.3 224.3 192.5 223 L 191 226.5 L 192 230.5 L 190.5 230 L 189 229.5 L 190 227.5 L 190 225.5 L 189 221.5 L 191 221 L 191.5 223 Q 194.5 221.5 191.5 220 Q 189.3 220.8 190 218.5 L 190.5 217 L 188.5 216 L 185.5 218 Q 182.8 216.8 185 215.5 L 184 212.5 L 184 210.5 L 184.5 209 Z M 187 214 L 185 217 L 187 217 L 187 214 Z " /><path fill="rgb(251,251,251)" stroke="rgb(251,251,251)" stroke-width="1" opacity="1" d="M 223.5 209 L 224 210.5 L 222 213.5 L 224 213.5 L 222.5 216 L 221.5 214 L 218 219 Q 214.2 217.5 215 220.5 L 213 219.5 L 215 219 L 218.5 214 Q 219.8 216.3 221 213.5 L 223.5 209 Z " /><path fill="rgb(251,251,251)" stroke="rgb(251,251,251)" stroke-width="1" opacity="1" d="M 160.5 216 L 173.5 220 L 174.5 219 L 185.5 219 L 184.5 221 L 177.5 220 L 174.5 221 Q 169.9 221.6 168.5 219 Q 167 221.5 165.5 218 L 163.5 217 L 161.5 217 L 160.5 216 Z " /><path fill="rgb(251,251,251)" stroke="rgb(251,251,251)" stroke-width="1" opacity="1" d="M 170.5 217 L 173 217.5 L 170.5 218 L 170.5 217 Z " /><path fill="rgb(251,251,251)" stroke="rgb(251,251,251)" stroke-width="1" opacity="1" d="M 188.5 218 L 189 219.5 L 187 220.5 L 188.5 218 Z " /><path fill="rgb(251,251,251)" stroke="rgb(251,251,251)" stroke-width="1" opacity="1" d="M 147.5 221 L 151 223.5 L 149.5 223 L 147.5 221 Z " /><path fill="rgb(251,251,251)" stroke="rgb(251,251,251)" stroke-width="1" opacity="1" d="M 212.5 221 L 211.5 223 L 210 222.5 L 212.5 221 Z " /><path fill="rgb(251,251,251)" stroke="rgb(251,251,251)" stroke-width="1" opacity="1" d="M 145.5 222 L 146.5 224 L 145.5 222 Z " /><path fill="rgb(251,251,251)" stroke="rgb(251,251,251)" stroke-width="1" opacity="1" d="M 152.5 224 L 154 227.5 L 153 227.5 L 152.5 224 Z " /><path fill="rgb(251,251,251)" stroke="rgb(251,251,251)" stroke-width="1" opacity="1" d="M 155.5 225 L 158 226 Q 156.5 229.8 159.5 229 L 159.5 227 L 162 228.5 L 160 229.5 L 168 230 Q 166.6 234 173.5 232 L 176 231 L 175.5 233 L 168.5 233 Q 167 229.5 160.5 231 L 159 231.5 L 159.5 230 L 156 229 L 155.5 225 Z " /><path fill="rgb(251,251,251)" stroke="rgb(251,251,251)" stroke-width="1" opacity="1" d="M 206.5 225 L 207 227.5 L 206 227.5 L 206.5 225 Z " /><path fill="rgb(251,251,251)" stroke="rgb(251,251,251)" stroke-width="1" opacity="1" d="M 193.5 228 L 194 230 L 196.5 231 Q 197.8 228.8 199 231.5 L 195.5 231 L 193.5 232 L 193 229.5 L 193.5 228 Z " /><path fill="rgb(251,251,251)" stroke="rgb(251,251,251)" stroke-width="1" opacity="1" d="M 153.5 229 L 157 230.5 L 155.5 231 L 153.5 230 L 153.5 232 Q 150.5 230.5 153.5 229 Z " /><path fill="rgb(251,251,251)" stroke="rgb(251,251,251)" stroke-width="1" opacity="1" d="M 205.5 229 L 205.5 231 L 207.5 230 L 206.5 232 L 203 230.5 L 205.5 229 Z " /><path fill="rgb(255,255,255)" stroke="rgb(255,255,255)" stroke-width="1" opacity="1" d="M 0 0 L 360 0 L 360 360 L 0 360 L 0 0 Z M 168 127 L 168 129 L 170 128 L 174 129 L 165 131 Q 161 130 162 133 L 164 132 L 163 134 L 165 134 L 164 136 L 165 137 L 167 136 L 168 139 Q 167 141 171 140 L 171 142 L 173 141 Q 176 142 175 140 L 176 140 L 177 141 L 186 141 L 188 141 L 192 140 L 192 142 L 195 141 L 194 143 L 196 143 L 197 143 L 196 145 L 201 144 L 203 145 L 204 147 L 202 146 L 203 148 L 206 147 L 205 149 Q 206 151 208 149 L 207 151 Q 209 155 211 152 L 210 154 L 212 154 L 214 159 L 215 157 L 216 161 L 218 162 L 221 159 L 220 161 L 222 163 L 222 161 L 223 160 L 222 157 L 224 158 L 224 156 L 224 153 L 219 147 L 218 141 L 215 142 L 215 141 L 213 140 L 212 137 L 210 138 L 207 133 L 206 133 L 207 136 L 204 134 Q 205 130 202 131 L 202 133 Q 200 130 195 131 L 200 130 L 193 128 L 192 130 L 186 129 L 192 128 L 192 127 Q 185 125 184 128 L 168 127 Z M 158 128 Q 156 131 159 130 L 158 128 Z M 160 130 L 160 131 L 162 131 L 160 130 Z M 153 134 L 153 136 L 147 140 L 145 140 L 146 142 L 145 141 Q 141 140 142 143 Q 138 144 141 146 L 138 151 Q 136 155 135 152 L 132 153 L 133 159 L 131 162 L 129 172 L 129 174 L 128 176 L 128 185 L 129 186 L 128 188 L 129 191 L 129 193 L 132 201 L 132 203 L 133 206 L 134 203 L 135 206 L 133 207 Q 134 209 136 207 L 141 214 L 140 216 L 142 219 L 146 218 L 145 220 L 148 220 L 149 223 L 151 222 L 153 228 L 154 228 L 153 225 L 156 227 Q 155 230 158 229 L 159 227 Q 160 230 165 230 L 160 231 L 168 232 L 169 230 L 174 232 L 169 232 L 169 233 L 186 232 L 190 230 Q 193 231 191 227 L 192 224 L 191 221 L 188 221 L 189 219 L 187 220 Q 188 222 186 221 L 186 220 L 175 219 L 173 219 L 169 220 L 169 218 L 166 219 L 166 217 L 164 218 L 164 217 L 158 215 L 157 212 L 155 213 L 155 212 Q 154 209 153 211 L 153 210 Q 151 205 150 208 L 147 201 L 146 203 L 141 195 L 143 195 L 139 188 L 140 186 L 142 191 L 143 191 L 141 181 L 140 185 L 139 185 L 140 175 L 141 179 Q 140 174 143 172 L 143 169 L 141 173 L 139 174 L 140 170 Q 143 168 141 167 L 147 156 L 150 154 L 149 153 L 151 153 Q 155 151 152 150 L 155 149 L 156 153 L 158 152 L 158 154 L 161 157 L 160 159 L 162 158 L 161 160 Q 162 162 164 160 L 165 163 L 167 164 L 165 165 L 167 165 L 166 167 L 167 170 L 167 168 L 169 167 L 168 169 L 171 168 L 170 170 L 175 174 L 172 176 Q 174 179 176 175 L 180 180 L 179 181 L 182 186 L 181 186 L 181 187 Q 184 188 183 185 L 183 183 L 184 186 Q 187 187 185 189 Q 186 191 188 189 L 191 194 L 189 194 L 191 196 L 193 195 L 193 198 Q 192 200 195 199 L 194 202 L 196 202 L 197 200 L 199 205 L 202 204 L 205 205 L 204 203 L 204 190 L 208 190 L 206 189 L 204 187 L 207 188 L 216 188 L 208 187 L 204 184 L 206 184 L 204 181 L 207 183 L 206 185 L 208 186 L 216 186 L 217 187 L 221 186 L 220 188 Q 222 193 219 192 L 219 194 L 219 195 L 218 193 L 216 194 L 218 197 L 215 203 L 214 201 L 212 204 Q 213 207 211 206 L 211 208 L 209 208 Q 206 207 207 210 L 207 212 L 206 211 L 205 213 L 202 215 L 196 209 L 192 205 L 194 202 L 192 203 L 192 202 L 191 201 L 191 200 L 190 199 Q 188 201 187 199 Q 188 195 186 196 L 181 191 L 182 189 L 181 189 L 180 188 L 179 188 L 174 183 L 177 181 L 177 180 L 174 181 L 174 180 Q 173 177 172 179 L 172 178 L 171 177 L 171 176 Q 169 171 168 174 Q 165 173 167 172 L 166 171 Q 161 169 164 168 L 163 165 Q 160 166 161 163 Q 160 160 159 162 L 157 161 L 158 159 L 157 157 L 153 157 Q 154 161 151 160 L 151 200 L 150 201 L 153 205 L 150 206 Q 151 208 153 206 Q 159 204 161 207 L 163 203 L 165 204 Q 166 201 163 202 L 162 200 L 163 190 L 164 200 L 165 192 L 164 190 Q 163 187 166 188 L 166 187 Q 162 186 163 189 L 162 189 L 164 186 L 163 185 L 163 182 L 170 191 L 169 195 L 172 194 L 178 201 L 177 202 L 179 202 Q 183 204 184 211 L 186 210 L 189 215 L 188 214 L 187 217 L 189 216 L 191 217 L 196 223 L 196 224 Q 198 223 197 226 L 199 227 L 198 227 L 199 229 L 207 224 L 209 224 L 210 222 L 212 223 L 211 222 L 214 220 L 215 221 L 214 219 L 216 219 Q 219 220 218 218 Q 221 216 219 215 L 222 210 Q 224 205 226 208 L 228 207 L 227 202 L 231 193 L 231 189 L 231 187 L 232 177 L 230 176 L 228 177 L 226 176 L 225 177 L 213 177 L 211 177 L 209 176 L 206 178 L 204 178 L 206 177 L 206 160 L 205 176 L 204 161 L 204 159 L 206 158 L 203 156 L 207 155 L 200 153 L 200 152 L 197 151 L 197 153 L 192 155 L 195 155 L 194 158 L 195 159 L 195 176 L 195 178 L 194 178 L 194 179 Q 196 178 195 181 L 195 183 L 195 184 L 190 178 L 189 175 Q 191 176 190 174 L 189 174 L 189 173 L 188 172 Q 186 168 185 171 L 185 170 L 183 165 L 181 164 L 182 166 L 182 168 L 180 163 L 179 163 L 179 161 L 177 162 L 177 161 L 176 160 L 163 146 L 164 142 L 167 143 L 167 141 Q 162 139 163 143 L 160 142 L 162 142 L 162 141 L 159 137 Q 157 139 156 137 Q 157 132 153 134 Z M 148 137 L 147 139 L 149 138 L 148 137 Z M 163 138 L 163 140 L 165 139 L 163 138 Z M 184 142 L 184 143 L 186 143 L 184 142 Z M 188 142 L 188 143 L 190 143 L 188 142 Z M 166 146 L 167 148 Q 168 145 166 146 Z M 222 146 L 221 148 L 223 149 L 222 146 Z M 202 148 L 200 150 L 201 151 L 203 150 L 202 148 Z M 155 150 L 154 153 L 155 153 L 155 150 Z M 156 153 L 154 155 L 156 155 L 156 153 Z M 172 153 L 173 155 Q 174 152 172 153 Z M 130 155 L 128 157 L 130 157 L 130 155 Z M 152 155 L 152 157 L 154 156 L 152 155 Z M 158 155 L 158 158 L 160 157 L 158 155 Z M 174 155 L 173 157 L 175 158 L 174 155 Z M 131 157 Q 129 160 132 159 L 131 157 Z M 150 157 L 148 160 L 150 159 L 150 157 Z M 208 157 L 209 159 Q 210 156 208 157 Z M 211 157 L 210 159 L 212 160 L 211 157 Z M 194 159 L 193 176 L 194 176 L 194 159 Z M 217 162 L 216 164 L 216 166 L 217 167 L 220 163 L 219 162 L 217 162 Z M 221 163 L 220 165 L 222 166 L 221 163 Z M 129 165 L 128 168 L 129 168 L 129 165 Z M 186 168 L 186 170 L 188 169 L 186 168 Z M 190 168 L 188 170 L 190 170 L 190 168 Z M 172 171 L 171 173 L 174 174 L 172 171 Z M 176 176 L 174 179 L 176 179 L 176 176 Z M 191 177 L 191 179 L 193 178 L 191 177 Z M 178 178 Q 176 181 179 180 L 178 178 Z M 177 181 L 177 183 L 179 182 L 177 181 Z M 178 184 L 178 186 L 180 185 L 178 184 Z M 183 190 L 185 194 L 185 192 L 183 190 Z M 187 191 L 188 193 L 189 193 L 187 191 Z M 206 191 L 205 200 L 206 200 L 206 191 Z M 130 195 L 129 198 L 130 198 L 130 195 Z M 172 195 L 170 198 L 172 198 Q 175 197 172 195 Z M 231 195 L 230 198 L 231 198 L 231 195 Z M 189 196 L 188 199 L 189 199 L 189 196 Z M 191 197 L 192 199 Q 193 196 191 197 Z M 169 198 L 170 200 Q 171 197 169 198 Z M 149 200 L 148 202 L 150 203 L 149 200 Z M 212 200 L 210 203 L 212 202 L 212 200 Z M 130 201 L 130 203 L 132 202 L 130 201 Z M 206 201 L 207 203 Q 208 200 206 201 Z M 229 201 L 230 203 Q 231 200 229 201 Z M 129 203 L 130 205 Q 131 202 129 203 Z M 230 203 L 230 205 L 232 204 L 230 203 Z M 194 204 L 195 206 Q 196 203 194 204 Z M 200 205 L 201 206 L 202 207 Q 203 204 200 205 Z M 206 205 L 205 207 L 207 208 L 206 205 Z M 178 206 L 178 208 L 180 207 L 178 206 Z M 182 206 L 180 208 L 182 208 L 182 206 Z M 158 207 Q 156 210 159 209 L 158 207 Z M 203 208 L 201 210 L 203 210 L 204 213 L 204 212 Q 207 210 203 208 Z M 205 208 L 206 210 Q 207 207 205 208 Z M 171 217 L 171 218 L 173 218 L 171 217 Z M 191 218 Q 189 221 192 220 L 191 218 Z M 196 225 L 195 228 L 196 228 L 196 225 Z M 207 225 L 206 228 L 207 228 L 207 225 Z M 204 227 L 202 229 L 204 229 L 204 227 Z M 200 229 L 200 230 L 202 230 L 200 229 Z " /><path fill="rgb(255,255,255)" stroke="rgb(255,255,255)" stroke-width="1" opacity="1" d="M 177.5 139 L 183 139.5 L 177.5 140 L 177.5 139 Z " /><path fill="rgb(255,255,255)" stroke="rgb(255,255,255)" stroke-width="1" opacity="1" d="M 133 154 L 135 154.5 L 133.5 157 L 133 154 Z " /><path fill="rgb(255,255,255)" stroke="rgb(255,255,255)" stroke-width="1" opacity="1" d="M 152.5 161 L 153 164.5 L 152 164.5 L 152.5 161 Z " /><path fill="rgb(255,255,255)" stroke="rgb(255,255,255)" stroke-width="1" opacity="1" d="M 152.5 168 L 153 201.5 L 152 201.5 L 152.5 168 Z " /><path fill="rgb(255,255,255)" stroke="rgb(255,255,255)" stroke-width="1" opacity="1" d="M 226.5 203 L 227 206 L 225 205.5 L 226.5 203 Z " /><path fill="rgb(255,255,255)" stroke="rgb(255,255,255)" stroke-width="1" opacity="1" d="M 177.5 220 L 183 220.5 L 177.5 221 L 177.5 220 Z " /><path fill="rgb(255,255,255)" stroke="rgb(255,255,255)" stroke-width="1" opacity="1" d="M 189.5 222 L 190 225.5 L 189 225.5 L 189.5 222 Z " /><path fill="rgb(2,2,2)" stroke="rgb(2,2,2)" stroke-width="1" opacity="1" d="M 176.5 129 L 183.5 129 L 197.5 132 Q 212.3 137.7 221 149.5 L 223 154.5 L 217 159.5 Q 213 150 204.5 145 Q 197.6 139.9 187.5 138 L 172.5 138 L 169.5 139 L 165 131 L 176.5 129 Z " /><path fill="rgb(2,2,2)" stroke="rgb(2,2,2)" stroke-width="1" opacity="1" d="M 154.5 136 L 194.5 185 L 196 184.5 L 196 154.5 L 196.5 154 L 202 154 L 202 202.5 L 200.5 203 L 154.5 147 L 145 155.5 Q 139.9 162.4 138 172.5 L 138 187.5 Q 141.9 206.1 155.5 215 Q 162.4 220.1 172.5 222 L 188 222 L 188 230 L 184.5 230 Q 182.8 232.8 176.5 231 L 165.5 229 L 152.5 223 L 139 210.5 L 131 194.5 L 129 176.5 L 131 165.5 L 137 152.5 L 149.5 139 L 154.5 136 Z " /><path fill="rgb(2,2,2)" stroke="rgb(2,2,2)" stroke-width="1" opacity="1" d="M 154.5 159 L 200.5 216 L 205.5 214 L 215 204.5 Q 220.6 197.1 222 185.5 L 220.5 184 L 208 184 L 208 178.5 L 208.5 178 L 231 178 L 228 197.5 Q 222.3 212.3 210.5 221 L 199 226 L 163 180 L 161 180.5 L 161 204.5 L 159.5 205 L 156.5 204 L 154 205 L 154.5 159 Z " /><path fill="rgb(52,52,52)" stroke="rgb(52,52,52)" stroke-width="1" opacity="1" d="M 173.5 129 L 176 129.5 L 173.5 130 L 173.5 129 Z " /><path fill="rgb(52,52,52)" stroke="rgb(52,52,52)" stroke-width="1" opacity="1" d="M 184.5 129 L 187 129.5 L 184.5 130 L 184.5 129 Z " /><path fill="rgb(52,52,52)" stroke="rgb(52,52,52)" stroke-width="1" opacity="1" d="M 156.5 138 L 157.5 140 L 156.5 138 Z " /><path fill="rgb(52,52,52)" stroke="rgb(52,52,52)" stroke-width="1" opacity="1" d="M 209.5 138 L 210.5 140 L 209.5 138 Z " /><path fill="rgb(52,52,52)" stroke="rgb(52,52,52)" stroke-width="1" opacity="1" d="M 145.5 142 L 143.5 145 L 145.5 142 Z " /><path fill="rgb(52,52,52)" stroke="rgb(52,52,52)" stroke-width="1" opacity="1" d="M 214.5 142 L 216.5 145 L 214.5 142 Z " /><path fill="rgb(52,52,52)" stroke="rgb(52,52,52)" stroke-width="1" opacity="1" d="M 160.5 143 L 161.5 145 L 160.5 143 Z " /><path fill="rgb(52,52,52)" stroke="rgb(52,52,52)" stroke-width="1" opacity="1" d="M 204.5 145 L 205.5 147 L 204.5 145 Z " /><path fill="rgb(52,52,52)" stroke="rgb(52,52,52)" stroke-width="1" opacity="1" d="M 154.5 147 L 155.5 149 L 154.5 147 Z " /><path fill="rgb(52,52,52)" stroke="rgb(52,52,52)" stroke-width="1" opacity="1" d="M 158.5 152 L 159.5 154 L 158.5 152 Z " /><path fill="rgb(52,52,52)" stroke="rgb(52,52,52)" stroke-width="1" opacity="1" d="M 223.5 153 L 224 154.5 L 221 156.5 L 223.5 153 Z " /><path fill="rgb(52,52,52)" stroke="rgb(52,52,52)" stroke-width="1" opacity="1" d="M 146.5 154 L 145.5 156 L 146.5 154 Z " /><path fill="rgb(52,52,52)" stroke="rgb(52,52,52)" stroke-width="1" opacity="1" d="M 169.5 154 L 170.5 156 L 169.5 154 Z " /><path fill="rgb(52,52,52)" stroke="rgb(52,52,52)" stroke-width="1" opacity="1" d="M 195.5 154 L 196 184.5 L 195 184.5 L 195.5 154 Z " /><path fill="rgb(52,52,52)" stroke="rgb(52,52,52)" stroke-width="1" opacity="1" d="M 202.5 154 L 203 202.5 L 202 202.5 L 202.5 154 Z " /><path fill="rgb(52,52,52)" stroke="rgb(52,52,52)" stroke-width="1" opacity="1" d="M 213.5 154 L 214.5 156 L 213.5 154 Z " /><path fill="rgb(52,52,52)" stroke="rgb(52,52,52)" stroke-width="1" opacity="1" d="M 163.5 158 L 164.5 160 L 163.5 158 Z " /><path fill="rgb(52,52,52)" stroke="rgb(52,52,52)" stroke-width="1" opacity="1" d="M 167.5 163 L 168.5 165 L 167.5 163 Z " /><path fill="rgb(52,52,52)" stroke="rgb(52,52,52)" stroke-width="1" opacity="1" d="M 178.5 165 L 179.5 167 L 178.5 165 Z " /><path fill="rgb(52,52,52)" stroke="rgb(52,52,52)" stroke-width="1" opacity="1" d="M 171.5 168 L 172.5 170 L 171.5 168 Z " /><path fill="rgb(52,52,52)" stroke="rgb(52,52,52)" stroke-width="1" opacity="1" d="M 163.5 170 L 164.5 172 L 163.5 170 Z " /><path fill="rgb(52,52,52)" stroke="rgb(52,52,52)" stroke-width="1" opacity="1" d="M 182.5 170 L 183.5 172 L 182.5 170 Z " /><path fill="rgb(52,52,52)" stroke="rgb(52,52,52)" stroke-width="1" opacity="1" d="M 129.5 173 L 130 175.5 L 129 175.5 L 129.5 173 Z " /><path fill="rgb(52,52,52)" stroke="rgb(52,52,52)" stroke-width="1" opacity="1" d="M 176.5 174 L 177.5 176 L 176.5 174 Z " /><path fill="rgb(52,52,52)" stroke="rgb(52,52,52)" stroke-width="1" opacity="1" d="M 187.5 176 L 188.5 178 L 187.5 176 Z " /><path fill="rgb(52,52,52)" stroke="rgb(52,52,52)" stroke-width="1" opacity="1" d="M 208.5 177 L 231 177.5 L 208.5 178 L 208.5 177 Z " /><path fill="rgb(52,52,52)" stroke="rgb(52,52,52)" stroke-width="1" opacity="1" d="M 180.5 179 L 181.5 181 L 180.5 179 Z " /><path fill="rgb(52,52,52)" stroke="rgb(52,52,52)" stroke-width="1" opacity="1" d="M 172.5 181 L 173.5 183 L 172.5 181 Z " /><path fill="rgb(52,52,52)" stroke="rgb(52,52,52)" stroke-width="1" opacity="1" d="M 191.5 181 L 193.5 184 L 191.5 181 Z " /><path fill="rgb(52,52,52)" stroke="rgb(52,52,52)" stroke-width="1" opacity="1" d="M 129.5 184 L 130 186.5 L 129 186.5 L 129.5 184 Z " /><path fill="rgb(52,52,52)" stroke="rgb(52,52,52)" stroke-width="1" opacity="1" d="M 165.5 184 L 167.5 187 L 165.5 184 Z " /><path fill="rgb(52,52,52)" stroke="rgb(52,52,52)" stroke-width="1" opacity="1" d="M 208.5 184 L 221 184.5 L 208.5 185 L 208.5 184 Z " /><path fill="rgb(52,52,52)" stroke="rgb(52,52,52)" stroke-width="1" opacity="1" d="M 230.5 184 L 231 186.5 L 230 186.5 L 230.5 184 Z " /><path fill="rgb(52,52,52)" stroke="rgb(52,52,52)" stroke-width="1" opacity="1" d="M 185.5 185 L 186.5 187 L 185.5 185 Z " /><path fill="rgb(52,52,52)" stroke="rgb(52,52,52)" stroke-width="1" opacity="1" d="M 176.5 186 L 177.5 188 L 176.5 186 Z " /><path fill="rgb(52,52,52)" stroke="rgb(52,52,52)" stroke-width="1" opacity="1" d="M 170.5 190 L 171.5 192 L 170.5 190 Z " /><path fill="rgb(52,52,52)" stroke="rgb(52,52,52)" stroke-width="1" opacity="1" d="M 189.5 190 L 190.5 192 L 189.5 190 Z " /><path fill="rgb(52,52,52)" stroke="rgb(52,52,52)" stroke-width="1" opacity="1" d="M 181.5 192 L 182.5 194 L 181.5 192 Z " /><path fill="rgb(52,52,52)" stroke="rgb(52,52,52)" stroke-width="1" opacity="1" d="M 174.5 195 L 175.5 197 L 174.5 195 Z " /><path fill="rgb(52,52,52)" stroke="rgb(52,52,52)" stroke-width="1" opacity="1" d="M 194.5 196 L 195.5 198 L 194.5 196 Z " /><path fill="rgb(52,52,52)" stroke="rgb(52,52,52)" stroke-width="1" opacity="1" d="M 185.5 197 L 186.5 199 L 185.5 197 Z " /><path fill="rgb(52,52,52)" stroke="rgb(52,52,52)" stroke-width="1" opacity="1" d="M 178.5 200 L 180.5 203 L 178.5 200 Z " /><path fill="rgb(52,52,52)" stroke="rgb(52,52,52)" stroke-width="1" opacity="1" d="M 198.5 201 L 199.5 203 L 198.5 201 Z " /><path fill="rgb(52,52,52)" stroke="rgb(52,52,52)" stroke-width="1" opacity="1" d="M 145.5 204 L 146.5 206 L 145.5 204 Z " /><path fill="rgb(52,52,52)" stroke="rgb(52,52,52)" stroke-width="1" opacity="1" d="M 156.5 204 L 159 204.5 L 156.5 205 L 156.5 204 Z " /><path fill="rgb(52,52,52)" stroke="rgb(52,52,52)" stroke-width="1" opacity="1" d="M 214.5 204 L 213.5 206 L 214.5 204 Z " /><path fill="rgb(52,52,52)" stroke="rgb(52,52,52)" stroke-width="1" opacity="1" d="M 183.5 206 L 184.5 208 L 183.5 206 Z " /><path fill="rgb(52,52,52)" stroke="rgb(52,52,52)" stroke-width="1" opacity="1" d="M 194.5 208 L 195.5 210 L 194.5 208 Z " /><path fill="rgb(52,52,52)" stroke="rgb(52,52,52)" stroke-width="1" opacity="1" d="M 187.5 211 L 189.5 214 L 187.5 211 Z " /><path fill="rgb(52,52,52)" stroke="rgb(52,52,52)" stroke-width="1" opacity="1" d="M 154.5 213 L 155.5 215 L 154.5 213 Z " /><path fill="rgb(52,52,52)" stroke="rgb(52,52,52)" stroke-width="1" opacity="1" d="M 198.5 213 L 199.5 215 L 198.5 213 Z " /><path fill="rgb(52,52,52)" stroke="rgb(52,52,52)" stroke-width="1" opacity="1" d="M 142.5 214 L 145.5 218 L 142.5 214 Z " /><path fill="rgb(52,52,52)" stroke="rgb(52,52,52)" stroke-width="1" opacity="1" d="M 217.5 214 L 214.5 218 L 217.5 214 Z " /><path fill="rgb(52,52,52)" stroke="rgb(52,52,52)" stroke-width="1" opacity="1" d="M 192.5 217 L 193.5 219 L 192.5 217 Z " /><path fill="rgb(52,52,52)" stroke="rgb(52,52,52)" stroke-width="1" opacity="1" d="M 149.5 220 L 150.5 222 L 149.5 220 Z " /><path fill="rgb(52,52,52)" stroke="rgb(52,52,52)" stroke-width="1" opacity="1" d="M 196.5 222 L 198.5 225 L 196.5 222 Z " /><path fill="rgb(52,52,52)" stroke="rgb(52,52,52)" stroke-width="1" opacity="1" d="M 173.5 230 L 176 230.5 L 173.5 231 L 173.5 230 Z " /><path fill="rgb(52,52,52)" stroke="rgb(52,52,52)" stroke-width="1" opacity="1" d="M 184.5 230 L 187 230.5 L 184.5 231 L 184.5 230 Z " /><path fill="rgb(135,135,135)" stroke="rgb(135,135,135)" stroke-width="1" opacity="1" d="M 173.5 138 L 176 138.5 L 173.5 139 L 173.5 138 Z " /><path fill="rgb(135,135,135)" stroke="rgb(135,135,135)" stroke-width="1" opacity="1" d="M 184.5 138 L 187 138.5 L 184.5 139 L 184.5 138 Z " /><path fill="rgb(135,135,135)" stroke="rgb(135,135,135)" stroke-width="1" opacity="1" d="M 211.5 139 L 213.5 142 L 211.5 139 Z " /><path fill="rgb(135,135,135)" stroke="rgb(135,135,135)" stroke-width="1" opacity="1" d="M 147.5 140 L 146.5 142 L 147.5 140 Z " /><path fill="rgb(135,135,135)" stroke="rgb(135,135,135)" stroke-width="1" opacity="1" d="M 158.5 140 L 159.5 142 L 158.5 140 Z " /><path fill="rgb(135,135,135)" stroke="rgb(135,135,135)" stroke-width="1" opacity="1" d="M 142.5 145 L 140.5 148 L 142.5 145 Z " /><path fill="rgb(135,135,135)" stroke="rgb(135,135,135)" stroke-width="1" opacity="1" d="M 162.5 145 L 163.5 147 L 162.5 145 Z " /><path fill="rgb(135,135,135)" stroke="rgb(135,135,135)" stroke-width="1" opacity="1" d="M 217.5 145 L 219.5 148 L 217.5 145 Z " /><path fill="rgb(135,135,135)" stroke="rgb(135,135,135)" stroke-width="1" opacity="1" d="M 153.5 147 L 151.5 150 L 153.5 147 Z " /><path fill="rgb(135,135,135)" stroke="rgb(135,135,135)" stroke-width="1" opacity="1" d="M 206.5 147 L 208.5 150 L 206.5 147 Z " /><path fill="rgb(135,135,135)" stroke="rgb(135,135,135)" stroke-width="1" opacity="1" d="M 156.5 150 L 157.5 152 L 156.5 150 Z " /><path fill="rgb(135,135,135)" stroke="rgb(135,135,135)" stroke-width="1" opacity="1" d="M 166.5 150 L 168.5 153 L 166.5 150 Z " /><path fill="rgb(135,135,135)" stroke="rgb(135,135,135)" stroke-width="1" opacity="1" d="M 149.5 151 L 147.5 154 L 149.5 151 Z " /><path fill="rgb(135,135,135)" stroke="rgb(135,135,135)" stroke-width="1" opacity="1" d="M 210.5 151 L 212.5 154 L 210.5 151 Z " /><path fill="rgb(135,135,135)" stroke="rgb(135,135,135)" stroke-width="1" opacity="1" d="M 195.5 153 L 203 153.5 L 195.5 154 L 195.5 153 Z " /><path fill="rgb(135,135,135)" stroke="rgb(135,135,135)" stroke-width="1" opacity="1" d="M 160.5 155 L 162.5 158 L 160.5 155 Z " /><path fill="rgb(135,135,135)" stroke="rgb(135,135,135)" stroke-width="1" opacity="1" d="M 145.5 156 L 144.5 158 L 145.5 156 Z " /><path fill="rgb(135,135,135)" stroke="rgb(135,135,135)" stroke-width="1" opacity="1" d="M 171.5 156 L 172.5 158 L 171.5 156 Z " /><path fill="rgb(135,135,135)" stroke="rgb(135,135,135)" stroke-width="1" opacity="1" d="M 214.5 156 L 215.5 158 L 214.5 156 Z " /><path fill="rgb(135,135,135)" stroke="rgb(135,135,135)" stroke-width="1" opacity="1" d="M 220.5 157 L 217.5 161 L 216.5 159 L 217.5 160 L 220.5 157 Z " /><path fill="rgb(135,135,135)" stroke="rgb(135,135,135)" stroke-width="1" opacity="1" d="M 153.5 158 L 154 204.5 L 153 204.5 L 153.5 158 Z " /><path fill="rgb(135,135,135)" stroke="rgb(135,135,135)" stroke-width="1" opacity="1" d="M 156.5 161 L 157.5 163 L 156.5 161 Z " /><path fill="rgb(135,135,135)" stroke="rgb(135,135,135)" stroke-width="1" opacity="1" d="M 165.5 161 L 166.5 163 L 165.5 161 Z " /><path fill="rgb(135,135,135)" stroke="rgb(135,135,135)" stroke-width="1" opacity="1" d="M 175.5 161 L 176.5 163 L 175.5 161 Z " /><path fill="rgb(135,135,135)" stroke="rgb(135,135,135)" stroke-width="1" opacity="1" d="M 160.5 166 L 162.5 169 L 160.5 166 Z " /><path fill="rgb(135,135,135)" stroke="rgb(135,135,135)" stroke-width="1" opacity="1" d="M 169.5 166 L 170.5 168 L 169.5 166 Z " /><path fill="rgb(135,135,135)" stroke="rgb(135,135,135)" stroke-width="1" opacity="1" d="M 180.5 167 L 181.5 169 L 180.5 167 Z " /><path fill="rgb(135,135,135)" stroke="rgb(135,135,135)" stroke-width="1" opacity="1" d="M 165.5 172 L 166.5 174 L 165.5 172 Z " /><path fill="rgb(135,135,135)" stroke="rgb(135,135,135)" stroke-width="1" opacity="1" d="M 174.5 172 L 175.5 174 L 174.5 172 Z " /><path fill="rgb(135,135,135)" stroke="rgb(135,135,135)" stroke-width="1" opacity="1" d="M 184.5 172 L 185.5 174 L 184.5 172 Z " /><path fill="rgb(135,135,135)" stroke="rgb(135,135,135)" stroke-width="1" opacity="1" d="M 138.5 173 L 139 175.5 L 138 175.5 L 138.5 173 Z " /><path fill="rgb(135,135,135)" stroke="rgb(135,135,135)" stroke-width="1" opacity="1" d="M 169.5 177 L 171.5 180 L 169.5 177 Z " /><path fill="rgb(135,135,135)" stroke="rgb(135,135,135)" stroke-width="1" opacity="1" d="M 178.5 177 L 179.5 179 L 178.5 177 Z " /><path fill="rgb(135,135,135)" stroke="rgb(135,135,135)" stroke-width="1" opacity="1" d="M 207.5 177 L 208 184.5 L 207 184.5 L 207.5 177 Z " /><path fill="rgb(135,135,135)" stroke="rgb(135,135,135)" stroke-width="1" opacity="1" d="M 189.5 178 L 191.5 181 L 189.5 178 Z " /><path fill="rgb(135,135,135)" stroke="rgb(135,135,135)" stroke-width="1" opacity="1" d="M 163.5 182 L 164.5 184 L 163.5 182 Z " /><path fill="rgb(135,135,135)" stroke="rgb(135,135,135)" stroke-width="1" opacity="1" d="M 182.5 182 L 184.5 185 L 182.5 182 Z " /><path fill="rgb(135,135,135)" stroke="rgb(135,135,135)" stroke-width="1" opacity="1" d="M 174.5 183 L 175.5 185 L 174.5 183 Z " /><path fill="rgb(135,135,135)" stroke="rgb(135,135,135)" stroke-width="1" opacity="1" d="M 138.5 184 L 139 186.5 L 138 186.5 L 138.5 184 Z " /><path fill="rgb(135,135,135)" stroke="rgb(135,135,135)" stroke-width="1" opacity="1" d="M 167.5 187 L 169.5 190 L 167.5 187 Z " /><path fill="rgb(135,135,135)" stroke="rgb(135,135,135)" stroke-width="1" opacity="1" d="M 178.5 188 L 179.5 190 L 178.5 188 Z " /><path fill="rgb(135,135,135)" stroke="rgb(135,135,135)" stroke-width="1" opacity="1" d="M 187.5 188 L 188.5 190 L 187.5 188 Z " /><path fill="rgb(135,135,135)" stroke="rgb(135,135,135)" stroke-width="1" opacity="1" d="M 172.5 193 L 173.5 195 L 172.5 193 Z " /><path fill="rgb(135,135,135)" stroke="rgb(135,135,135)" stroke-width="1" opacity="1" d="M 191.5 193 L 193.5 196 L 191.5 193 Z " /><path fill="rgb(135,135,135)" stroke="rgb(135,135,135)" stroke-width="1" opacity="1" d="M 183.5 194 L 184.5 196 L 183.5 194 Z " /><path fill="rgb(135,135,135)" stroke="rgb(135,135,135)" stroke-width="1" opacity="1" d="M 176.5 198 L 177.5 200 L 176.5 198 Z " /><path fill="rgb(135,135,135)" stroke="rgb(135,135,135)" stroke-width="1" opacity="1" d="M 187.5 199 L 188.5 201 L 187.5 199 Z " /><path fill="rgb(135,135,135)" stroke="rgb(135,135,135)" stroke-width="1" opacity="1" d="M 196.5 199 L 197.5 201 L 196.5 199 Z " /><path fill="rgb(135,135,135)" stroke="rgb(135,135,135)" stroke-width="1" opacity="1" d="M 144.5 202 L 145.5 204 L 144.5 202 Z " /><path fill="rgb(135,135,135)" stroke="rgb(135,135,135)" stroke-width="1" opacity="1" d="M 215.5 202 L 214.5 204 L 215.5 202 Z " /><path fill="rgb(135,135,135)" stroke="rgb(135,135,135)" stroke-width="1" opacity="1" d="M 200.5 203 L 203 203.5 L 200.5 204 L 200.5 203 Z " /><path fill="rgb(135,135,135)" stroke="rgb(135,135,135)" stroke-width="1" opacity="1" d="M 181.5 204 L 182.5 206 L 181.5 204 Z " /><path fill="rgb(135,135,135)" stroke="rgb(135,135,135)" stroke-width="1" opacity="1" d="M 191.5 204 L 193.5 207 L 191.5 204 Z " /><path fill="rgb(135,135,135)" stroke="rgb(135,135,135)" stroke-width="1" opacity="1" d="M 147.5 206 L 149.5 209 L 147.5 206 Z " /><path fill="rgb(135,135,135)" stroke="rgb(135,135,135)" stroke-width="1" opacity="1" d="M 212.5 206 L 210.5 209 L 212.5 206 Z " /><path fill="rgb(135,135,135)" stroke="rgb(135,135,135)" stroke-width="1" opacity="1" d="M 185.5 209 L 186.5 211 L 185.5 209 Z " /><path fill="rgb(135,135,135)" stroke="rgb(135,135,135)" stroke-width="1" opacity="1" d="M 151.5 210 L 153.5 213 L 151.5 210 Z " /><path fill="rgb(135,135,135)" stroke="rgb(135,135,135)" stroke-width="1" opacity="1" d="M 196.5 210 L 197.5 212 L 196.5 210 Z " /><path fill="rgb(135,135,135)" stroke="rgb(135,135,135)" stroke-width="1" opacity="1" d="M 208.5 210 L 206.5 213 L 208.5 210 Z " /><path fill="rgb(135,135,135)" stroke="rgb(135,135,135)" stroke-width="1" opacity="1" d="M 140.5 212 L 141.5 214 L 140.5 212 Z " /><path fill="rgb(135,135,135)" stroke="rgb(135,135,135)" stroke-width="1" opacity="1" d="M 219.5 212 L 218.5 214 L 219.5 212 Z " /><path fill="rgb(135,135,135)" stroke="rgb(135,135,135)" stroke-width="1" opacity="1" d="M 156.5 214 L 157.5 216 L 156.5 214 Z " /><path fill="rgb(135,135,135)" stroke="rgb(135,135,135)" stroke-width="1" opacity="1" d="M 190.5 215 L 191.5 217 L 190.5 215 Z " /><path fill="rgb(135,135,135)" stroke="rgb(135,135,135)" stroke-width="1" opacity="1" d="M 146.5 218 L 148.5 221 L 146.5 218 Z " /><path fill="rgb(135,135,135)" stroke="rgb(135,135,135)" stroke-width="1" opacity="1" d="M 213.5 218 L 212.5 220 L 213.5 218 Z " /><path fill="rgb(135,135,135)" stroke="rgb(135,135,135)" stroke-width="1" opacity="1" d="M 194.5 220 L 195.5 222 L 194.5 220 Z " /><path fill="rgb(135,135,135)" stroke="rgb(135,135,135)" stroke-width="1" opacity="1" d="M 173.5 221 L 176 221.5 L 173.5 222 L 173.5 221 Z " /><path fill="rgb(135,135,135)" stroke="rgb(135,135,135)" stroke-width="1" opacity="1" d="M 188.5 222 L 189 229.5 L 187 230.5 L 188.5 222 Z " /><path fill="rgb(135,135,135)" stroke="rgb(135,135,135)" stroke-width="1" opacity="1" d="M 198.5 225 L 199.5 227 L 198.5 225 Z " /><path fill="rgb(229,229,229)" stroke="rgb(229,229,229)" stroke-width="1" opacity="1" d="M 176.5 128 L 184 128.5 L 176.5 129 L 176.5 128 Z " /><path fill="rgb(229,229,229)" stroke="rgb(229,229,229)" stroke-width="1" opacity="1" d="M 153.5 135 L 155 135.5 L 152.5 137 L 153.5 135 Z " /><path fill="rgb(229,229,229)" stroke="rgb(229,229,229)" stroke-width="1" opacity="1" d="M 148.5 137 Q 151.5 138.5 148.5 140 L 148.5 137 Z " /><path fill="rgb(229,229,229)" stroke="rgb(229,229,229)" stroke-width="1" opacity="1" d="M 156.5 137 L 157.5 139 L 156.5 137 Z " /><path fill="rgb(229,229,229)" stroke="rgb(229,229,229)" stroke-width="1" opacity="1" d="M 176.5 138 L 184 138.5 L 176.5 139 L 176.5 138 Z " /><path fill="rgb(229,229,229)" stroke="rgb(229,229,229)" stroke-width="1" opacity="1" d="M 160.5 142 L 161.5 144 L 160.5 142 Z " /><path fill="rgb(229,229,229)" stroke="rgb(229,229,229)" stroke-width="1" opacity="1" d="M 201.5 144 L 200.5 146 L 201.5 144 Z " /><path fill="rgb(229,229,229)" stroke="rgb(229,229,229)" stroke-width="1" opacity="1" d="M 164.5 147 L 166.5 150 L 164.5 147 Z " /><path fill="rgb(229,229,229)" stroke="rgb(229,229,229)" stroke-width="1" opacity="1" d="M 139.5 148 L 138.5 150 L 139.5 148 Z " /><path fill="rgb(229,229,229)" stroke="rgb(229,229,229)" stroke-width="1" opacity="1" d="M 154.5 148 L 155.5 150 L 154.5 148 Z " /><path fill="rgb(229,229,229)" stroke="rgb(229,229,229)" stroke-width="1" opacity="1" d="M 220.5 148 L 221.5 150 L 220.5 148 Z " /><path fill="rgb(229,229,229)" stroke="rgb(229,229,229)" stroke-width="1" opacity="1" d="M 158.5 153 L 159.5 155 L 158.5 153 Z " /><path fill="rgb(229,229,229)" stroke="rgb(229,229,229)" stroke-width="1" opacity="1" d="M 169.5 153 L 170.5 155 L 169.5 153 Z " /><path fill="rgb(229,229,229)" stroke="rgb(229,229,229)" stroke-width="1" opacity="1" d="M 153.5 157 L 155.5 160 L 153.5 157 Z " /><path fill="rgb(229,229,229)" stroke="rgb(229,229,229)" stroke-width="1" opacity="1" d="M 173.5 158 L 174.5 160 L 173.5 158 Z " /><path fill="rgb(229,229,229)" stroke="rgb(229,229,229)" stroke-width="1" opacity="1" d="M 163.5 159 L 164.5 161 L 163.5 159 Z " /><path fill="rgb(229,229,229)" stroke="rgb(229,229,229)" stroke-width="1" opacity="1" d="M 158.5 163 L 159.5 165 L 158.5 163 Z " /><path fill="rgb(229,229,229)" stroke="rgb(229,229,229)" stroke-width="1" opacity="1" d="M 177.5 163 L 180.5 167 L 177.5 163 Z " /><path fill="rgb(229,229,229)" stroke="rgb(229,229,229)" stroke-width="1" opacity="1" d="M 163.5 169 L 164.5 171 L 163.5 169 Z " /><path fill="rgb(229,229,229)" stroke="rgb(229,229,229)" stroke-width="1" opacity="1" d="M 182.5 169 L 183.5 171 L 182.5 169 Z " /><path fill="rgb(229,229,229)" stroke="rgb(229,229,229)" stroke-width="1" opacity="1" d="M 172.5 170 L 173.5 172 L 172.5 170 Z " /><path fill="rgb(229,229,229)" stroke="rgb(229,229,229)" stroke-width="1" opacity="1" d="M 167.5 174 L 168.5 176 L 167.5 174 Z " /><path fill="rgb(229,229,229)" stroke="rgb(229,229,229)" stroke-width="1" opacity="1" d="M 186.5 174 L 188.5 177 L 186.5 174 Z " /><path fill="rgb(229,229,229)" stroke="rgb(229,229,229)" stroke-width="1" opacity="1" d="M 176.5 175 L 177.5 177 L 176.5 175 Z " /><path fill="rgb(229,229,229)" stroke="rgb(229,229,229)" stroke-width="1" opacity="1" d="M 128.5 176 L 129 183.5 L 128 183.5 L 128.5 176 Z " /><path fill="rgb(229,229,229)" stroke="rgb(229,229,229)" stroke-width="1" opacity="1" d="M 138.5 176 L 139 183.5 L 138 183.5 L 138.5 176 Z " /><path fill="rgb(229,229,229)" stroke="rgb(229,229,229)" stroke-width="1" opacity="1" d="M 231.5 177 L 232 183.5 L 231 183.5 L 231.5 177 Z " /><path fill="rgb(229,229,229)" stroke="rgb(229,229,229)" stroke-width="1" opacity="1" d="M 172.5 180 L 173.5 182 L 172.5 180 Z " /><path fill="rgb(229,229,229)" stroke="rgb(229,229,229)" stroke-width="1" opacity="1" d="M 161 181 L 163 181.5 L 162 182.5 L 161.5 191 L 161 181 Z " /><path fill="rgb(229,229,229)" stroke="rgb(229,229,229)" stroke-width="1" opacity="1" d="M 176.5 185 L 177.5 187 L 176.5 185 Z " /><path fill="rgb(229,229,229)" stroke="rgb(229,229,229)" stroke-width="1" opacity="1" d="M 185.5 186 L 186.5 188 L 185.5 186 Z " /><path fill="rgb(229,229,229)" stroke="rgb(229,229,229)" stroke-width="1" opacity="1" d="M 180.5 190 L 181.5 192 L 180.5 190 Z " /><path fill="rgb(229,229,229)" stroke="rgb(229,229,229)" stroke-width="1" opacity="1" d="M 170.5 191 L 171.5 193 L 170.5 191 Z " /><path fill="rgb(229,229,229)" stroke="rgb(229,229,229)" stroke-width="1" opacity="1" d="M 161.5 192 L 162 204.5 Q 161 207 156.5 206 L 156.5 205 L 161 205 L 161.5 192 Z " /><path fill="rgb(229,229,229)" stroke="rgb(229,229,229)" stroke-width="1" opacity="1" d="M 174.5 196 Q 177.5 197.5 174.5 199 L 174.5 196 Z " /><path fill="rgb(229,229,229)" stroke="rgb(229,229,229)" stroke-width="1" opacity="1" d="M 194.5 197 L 195.5 199 L 194.5 197 Z " /><path fill="rgb(229,229,229)" stroke="rgb(229,229,229)" stroke-width="1" opacity="1" d="M 189.5 201 L 190.5 203 L 189.5 201 Z " /><path fill="rgb(229,229,229)" stroke="rgb(229,229,229)" stroke-width="1" opacity="1" d="M 179.5 202 L 180.5 204 L 179.5 202 Z " /><path fill="rgb(229,229,229)" stroke="rgb(229,229,229)" stroke-width="1" opacity="1" d="M 198.5 202 L 199.5 204 L 198.5 202 Z " /><path fill="rgb(229,229,229)" stroke="rgb(229,229,229)" stroke-width="1" opacity="1" d="M 183.5 207 L 184.5 209 L 183.5 207 Z " /><path fill="rgb(229,229,229)" stroke="rgb(229,229,229)" stroke-width="1" opacity="1" d="M 194.5 207 L 195.5 209 L 194.5 207 Z " /><path fill="rgb(229,229,229)" stroke="rgb(229,229,229)" stroke-width="1" opacity="1" d="M 138.5 210 L 139.5 212 L 138.5 210 Z " /><path fill="rgb(229,229,229)" stroke="rgb(229,229,229)" stroke-width="1" opacity="1" d="M 221.5 210 L 220.5 212 L 221.5 210 Z " /><path fill="rgb(229,229,229)" stroke="rgb(229,229,229)" stroke-width="1" opacity="1" d="M 198.5 212 L 199.5 214 L 198.5 212 Z " /><path fill="rgb(229,229,229)" stroke="rgb(229,229,229)" stroke-width="1" opacity="1" d="M 188.5 213 L 189.5 215 L 188.5 213 Z " /><path fill="rgb(229,229,229)" stroke="rgb(229,229,229)" stroke-width="1" opacity="1" d="M 192.5 218 L 193.5 220 L 192.5 218 Z " /><path fill="rgb(229,229,229)" stroke="rgb(229,229,229)" stroke-width="1" opacity="1" d="M 211.5 220 L 210.5 222 L 211.5 220 Z " /><path fill="rgb(229,229,229)" stroke="rgb(229,229,229)" stroke-width="1" opacity="1" d="M 176.5 221 L 184 221.5 L 176.5 222 L 176.5 221 Z " /><path fill="rgb(229,229,229)" stroke="rgb(229,229,229)" stroke-width="1" opacity="1" d="M 176.5 231 L 184 231.5 L 176.5 232 L 176.5 231 Z " /></svg>